<svg width="20" height="20" viewBox="0 0 20 20" fill="none" xmlns="http://www.w3.org/2000/svg">
<path d="M16.25 18.3337H14.6875V16.7464C14.6875 15.4314 13.6382 14.3654 12.3438 14.3654H7.65625C6.36184 14.3654 5.3125 15.4314 5.3125 16.7464V18.3337H3.75V16.7464C3.75 14.5548 5.49889 12.7781 7.65625 12.7781H12.3438C14.5011 12.7781 16.25 14.5548 16.25 16.7464V18.3337ZM10 11.1908C7.41116 11.1908 5.3125 9.05882 5.3125 6.4289C5.3125 3.79897 7.41116 1.66699 10 1.66699C12.5888 1.66699 14.6875 3.79897 14.6875 6.4289C14.6875 9.05882 12.5888 11.1908 10 11.1908ZM10 9.6035C11.7259 9.6035 13.125 8.18218 13.125 6.4289C13.125 4.67561 11.7259 3.25429 10 3.25429C8.27411 3.25429 6.875 4.67561 6.875 6.4289C6.875 8.18218 8.27411 9.6035 10 9.6035Z" fill="white"/>
</svg>
